<svg width="512" height="512" viewBox="0 0 512 512" fill="none" xmlns="http://www.w3.org/2000/svg">
  <!-- Purple background with rounded corners -->
  <rect x="0" y="0" width="512" height="512" rx="115" fill="#7C3AED"/>
  <!-- White "D" mark -->
  <g transform="translate(256 256) scale(1.72) translate(-256 -256)">
    <path fill="#F8FAFC" d="M200 168h72c39.8 0 72 32.2 72 72v32c0 39.8-32.2 72-72 72h-72c-13.3 0-24-10.7-24-24V192c0-13.3 10.7-24 24-24zm72 128c22.1 0 40-17.9 40-40v-32c0-22.1-17.9-40-40-40h-48v112h48z"/>
  </g>
  <!-- Yellow lemon dot -->
  <ellipse cx="150" cy="76" rx="18" ry="13" fill="#FACC15" transform="rotate(-18 150 76)"/>
</svg>
