<svg width="180" height="40" viewBox="0 0 180 40" fill="none" xmlns="http://www.w3.org/2000/svg">
  <!-- LemonData Icon -->
  <rect x="0" y="0" width="40" height="40" rx="9" fill="#7C3AED"/>
  <g transform="translate(20 20) scale(0.135) translate(-256 -256)">
    <path fill="#F8FAFC" d="M200 168h72c39.8 0 72 32.2 72 72v32c0 39.8-32.2 72-72 72h-72c-13.3 0-24-10.7-24-24V192c0-13.3 10.7-24 24-24zm72 128c22.1 0 40-17.9 40-40v-32c0-22.1-17.9-40-40-40h-48v112h48z"/>
  </g>
  <ellipse cx="12" cy="6" rx="3.5" ry="2.5" fill="#FACC15" transform="rotate(-18 12 6)"/>
  <!-- LemonData Text (Light for dark mode) -->
  <text x="50" y="28" font-family="Inter, system-ui, sans-serif" font-size="22" font-weight="600" fill="#F8FAFC">LemonData</text>
</svg>
